<svg xmlns="http://www.w3.org/2000/svg" viewBox="0 0 800 800" width="100" height="100">
  <!-- テーブル -->
  <ellipse cx="400" cy="720" rx="180" ry="50" fill="#8B6F47" stroke="#3E2723" stroke-width="8"/>
  <rect x="220" y="670" width="360" height="50" fill="#8B6F47"/>
  <ellipse cx="400" cy="670" rx="180" ry="50" fill="#A0826D" stroke="#3E2723" stroke-width="8"/>
  
  <!-- カップ -->
  <path d="M520 580 L540 640 L560 640 L580 580 Z" fill="#E0E0E0" stroke="#3E2723" stroke-width="6"/>
  <ellipse cx="550" cy="580" rx="30" ry="10" fill="#6B4423" stroke="#3E2723" stroke-width="4"/>
  <path d="M580 600 Q610 610 600 630 Q590 650 570 640" fill="none" stroke="#3E2723" stroke-width="6" stroke-linecap="round"/>
  
  <!-- 体 -->
  <path d="M280 480 Q280 550 320 600 L480 600 Q520 550 520 480 L520 450 Q510 440 500 440 L480 440 Q460 430 440 430 L360 430 Q340 430 320 440 L300 440 Q290 440 280 450 Z" fill="#D84B4B" stroke="#3E2723" stroke-width="8"/>
  
  <!-- 腕 -->
  <circle cx="320" cy="540" r="35" fill="#FDBCB4" stroke="#3E2723" stroke-width="6"/>
  <circle cx="480" cy="540" r="35" fill="#FDBCB4" stroke="#3E2723" stroke-width="6"/>
  
  <!-- 顔 -->
  <path d="M300 200 Q300 100 400 100 Q500 100 500 200 L500 350 Q500 450 400 450 Q300 450 300 350 Z" fill="#FDBCB4" stroke="#3E2723" stroke-width="8"/>
  
  <!-- 髪 -->
  <path d="M280 180 Q280 80 400 80 Q520 80 520 180 Q520 200 510 220 L510 180 Q510 120 480 100 Q450 80 400 80 Q350 80 320 100 Q290 120 290 180 L290 220 Q280 200 280 180 Z" fill="#6B4423" stroke="#3E2723" stroke-width="8"/>
  <path d="M290 220 Q280 240 280 280 Q280 320 290 340" fill="none" stroke="#3E2723" stroke-width="8"/>
  <path d="M510 220 Q520 240 520 280 Q520 320 510 340" fill="none" stroke="#3E2723" stroke-width="8"/>
  
  <!-- 顔のパーツ -->
  <circle cx="340" cy="260" r="12" fill="#3E2723"/>
  <circle cx="460" cy="260" r="12" fill="#3E2723"/>
  <circle cx="480" cy="240" r="8" fill="#3E2723"/>
  <path d="M420 260 Q430 270 440 260" fill="none" stroke="#3E2723" stroke-width="6" stroke-linecap="round"/>
  
  <!-- ほっぺ -->
  <circle cx="300" cy="320" r="25" fill="#FFB3BA" opacity="0.7"/>
  <circle cx="500" cy="320" r="25" fill="#FFB3BA" opacity="0.7"/>
  
  <!-- 口 -->
  <path d="M360 320 Q400 380 440 320" fill="#FF4444" stroke="#3E2723" stroke-width="6"/>
  <path d="M360 320 Q400 360 440 320" fill="#FF6666"/>
</svg>